<?xml version="1.0" encoding="UTF-8" standalone="no"?> <svg id="Layer_1" data-name="Layer 1" xmlns="http://www.w3.org/2000/svg" viewBox="0 0 48 48"><defs><style>.cls-1{fill:#eff3f9;}.cls-2{fill:#cfe0f3;}.cls-3{fill:#aecee8;}.cls-4{fill:#08105e;}</style></defs><path class="cls-1" d="M30.991,31H36.5A3.517,3.517,0,0,0,40,27.5V22H36V18h4.5A3.5,3.5,0,0,1,44,21.5v6A7.5,7.5,0,0,1,36.5,35H30.991Z"/><rect class="cls-2" x="36" y="18" width="3" height="4"/><path class="cls-2" d="M36.5,31H30.991v4H36.5c.058,0,.114-.007.172-.009a14.875,14.875,0,0,0,1.964-4.745A3.455,3.455,0,0,1,36.5,31Z"/><path class="cls-2" d="M6,39H38a2,2,0,0,1,2,2v0a4,4,0,0,1-4,4H8a4,4,0,0,1-4-4v0a2,2,0,0,1,2-2Z"/><path class="cls-3" d="M36,42H8a3.989,3.989,0,0,1-3.569-2.227A1.98,1.98,0,0,0,4,41a4,4,0,0,0,4,4H36a4,4,0,0,0,4-4,1.98,1.98,0,0,0-.431-1.227A3.989,3.989,0,0,1,36,42Z"/><path class="cls-1" d="M10,13H32a4,4,0,0,1,4,4V27A12,12,0,0,1,24,39H19A13,13,0,0,1,6,26V17a4,4,0,0,1,4-4Z"/><path class="cls-2" d="M29,34H21A10,10,0,0,1,11,24V13H10a4,4,0,0,0-4,4v9A13,13,0,0,0,19,39h5a11.991,11.991,0,0,0,10.606-6.394A11.936,11.936,0,0,1,29,34Z"/><path class="cls-4" d="M13,10a1,1,0,0,0,1-1V8.414a2.432,2.432,0,0,1,.707-1.707A4.382,4.382,0,0,0,16,3.586V3a1,1,0,0,0-2,0v.586a2.432,2.432,0,0,1-.707,1.707A4.382,4.382,0,0,0,12,8.414V9A1,1,0,0,0,13,10Z"/><path class="cls-4" d="M21,10a1,1,0,0,0,1-1V8.414a2.432,2.432,0,0,1,.707-1.707A4.382,4.382,0,0,0,24,3.586V3a1,1,0,0,0-2,0v.586a2.432,2.432,0,0,1-.707,1.707A4.382,4.382,0,0,0,20,8.414V9A1,1,0,0,0,21,10Z"/><path class="cls-4" d="M29,10a1,1,0,0,0,1-1V8.414a2.432,2.432,0,0,1,.707-1.707A4.382,4.382,0,0,0,32,3.586V3a1,1,0,0,0-2,0v.586a2.432,2.432,0,0,1-.707,1.707A4.382,4.382,0,0,0,28,8.414V9A1,1,0,0,0,29,10Z"/><path class="cls-4" d="M40.5,17H37a5.006,5.006,0,0,0-5-5H10a5.006,5.006,0,0,0-5,5v9a14,14,0,0,0,6.815,12H6a3,3,0,0,0-3,3,5.006,5.006,0,0,0,5,5H36a5.006,5.006,0,0,0,5-5,3,3,0,0,0-3-3H30.906a13.076,13.076,0,0,0,2.457-2H36.5A8.51,8.51,0,0,0,45,27.5v-6A4.505,4.505,0,0,0,40.5,17ZM37,23h2v4.5a2.5,2.5,0,0,1-2.346,2.484A12.983,12.983,0,0,0,37,27Zm2,18a3,3,0,0,1-3,3H8a3,3,0,0,1-3-3,1,1,0,0,1,1-1H38A1,1,0,0,1,39,41ZM24,38H19A12.013,12.013,0,0,1,7,26V17a3,3,0,0,1,3-3H32a3,3,0,0,1,3,3V27A11.013,11.013,0,0,1,24,38ZM43,27.5A6.508,6.508,0,0,1,36.5,34H34.94a12.963,12.963,0,0,0,1.054-2H36.5A4.505,4.505,0,0,0,41,27.5V22a1,1,0,0,0-1-1H37V19h3.5A2.5,2.5,0,0,1,43,21.5Z"/></svg>