<?xml version="1.0" encoding="UTF-8" standalone="no"?> <svg id="Layer_1" data-name="Layer 1" xmlns="http://www.w3.org/2000/svg" viewBox="0 0 48 48"><defs><style>.cls-1{fill:#eff3f9;}.cls-2{fill:#cfe0f3;}.cls-3{fill:#1761b2;}.cls-4{fill:#0d3b8d;}.cls-5{fill:#0588e2;}.cls-6{fill:#8c94af;}.cls-7{fill:#6f7792;}.cls-8{fill:#08105e;}</style></defs><path class="cls-1" d="M34,42H12a4,4,0,0,1-4-4V15L23,5,38,15V38A4,4,0,0,1,34,42Z"/><path class="cls-2" d="M8,22.652,23,12.517,38,22.652V16.618L24.4,7.428a2.5,2.5,0,0,0-2.8,0L8,16.618Z"/><path class="cls-2" d="M36,27H32a2.006,2.006,0,0,0-2,2v2H27a3.009,3.009,0,0,0-3,3v4H12a4,4,0,0,1-4-4v4a4,4,0,0,0,4,4H34a4,4,0,0,0,4-4V29A2.006,2.006,0,0,0,36,27Zm0,4H32V29h4Z"/><rect class="cls-3" x="28" y="32" width="18" height="13" rx="2"/><path class="cls-4" d="M36,41a4,4,0,0,1-4-4V32H30a2,2,0,0,0-2,2v9a2,2,0,0,0,2,2H44a2,2,0,0,0,2-2V41Z"/><path class="cls-5" d="M41.5,20.5a2.489,2.489,0,0,1-1.4-.429L23,8.517,5.9,20.071a2.5,2.5,0,0,1-2.8-4.143l18.5-12.5a2.5,2.5,0,0,1,2.8,0l18.5,12.5A2.5,2.5,0,0,1,41.5,20.5Z"/><path class="cls-6" d="M18,42V26a1,1,0,0,1,1-1h8a1,1,0,0,1,1,1V42Z"/><path class="cls-7" d="M27,31a3.009,3.009,0,0,0-3,3v4H18v4H28V31Z"/><path class="cls-8" d="M24,41H19V26h8v2.35a1,1,0,0,0,2,0V26a2,2,0,0,0-2-2H19a2,2,0,0,0-2,2V41H12a3,3,0,0,1-3-3V19.183L23,9.724l14,9.459V24a1,1,0,0,0,2,0V20.534l.54.365a3.5,3.5,0,1,0,3.919-5.8L24.959,2.6a3.485,3.485,0,0,0-3.918,0L2.541,15.1a3.5,3.5,0,0,0,1.3,6.336,3.555,3.555,0,0,0,.671.065,3.472,3.472,0,0,0,1.952-.6L7,20.534V38a5.006,5.006,0,0,0,5,5H24a1,1,0,0,0,0-2ZM5.339,19.243A1.5,1.5,0,1,1,3.66,16.757l18.5-12.5a1.5,1.5,0,0,1,1.68,0l18.5,12.5a1.5,1.5,0,0,1,.4,2.083,1.532,1.532,0,0,1-2.082.4L23.56,7.688a1,1,0,0,0-1.12,0Z"/><path class="cls-8" d="M44,31H41V29a2,2,0,0,0-2-2H35a2,2,0,0,0-2,2v2H30a3,3,0,0,0-3,3v9a3,3,0,0,0,3,3H44a3,3,0,0,0,3-3V34A3,3,0,0,0,44,31Zm-9-2h4v2H35ZM45,43a1,1,0,0,1-1,1H30a1,1,0,0,1-1-1V34a1,1,0,0,1,1-1H44a1,1,0,0,1,1,1Z"/></svg>