<?xml version="1.0" encoding="UTF-8" standalone="no"?> <svg id="Layer_1" data-name="Layer 1" xmlns="http://www.w3.org/2000/svg" viewBox="0 0 48 48"><defs><style>.cls-1{fill:#afb4c2;}.cls-2{fill:#8c94af;}.cls-3{fill:#6f7792;}.cls-4{fill:#1761b2;}.cls-5{fill:#0d3b8d;}.cls-6{fill:#47caf0;}.cls-7{fill:#20aee1;}.cls-8{fill:#eff3f9;}.cls-9{fill:#cfe0f3;}.cls-10{fill:#08105e;}</style></defs><rect class="cls-1" x="1" y="22" width="46" height="4" rx="1"/><path class="cls-2" d="M5,25V23a1,1,0,0,1,1-1H2a1,1,0,0,0-1,1v2a1,1,0,0,0,1,1H6A1,1,0,0,1,5,25Z"/><path class="cls-2" d="M5,26V43a1,1,0,0,0,1,1H8a1,1,0,0,0,1-1V26Z"/><rect class="cls-3" x="5" y="26" width="4" height="3"/><path class="cls-2" d="M39,26V43a1,1,0,0,0,1,1h2a1,1,0,0,0,1-1V26Z"/><rect class="cls-3" x="39" y="26" width="4" height="3"/><path class="cls-1" d="M9,38H19a1,1,0,0,0,1-1V26H9Z"/><rect class="cls-2" x="9" y="26" width="11" height="3"/><rect class="cls-2" x="9" y="32" width="11" height="3"/><path class="cls-4" d="M30,22V19a1,1,0,0,0-1-1H7a1,1,0,0,0-1,1v3Z"/><path class="cls-5" d="M11,18H7a1,1,0,0,0-1,1v3h4V19A1,1,0,0,1,11,18Z"/><path class="cls-6" d="M8,18V6A1,1,0,0,1,9,5H27a1,1,0,0,1,1,1V18Z"/><path class="cls-7" d="M12,5H9A1,1,0,0,0,8,6V18H28V15H13a2,2,0,0,1-2-2V6A1,1,0,0,1,12,5Z"/><path class="cls-8" d="M36,15h5a1,1,0,0,1,1,1v3a3,3,0,0,1-3,3H38a3,3,0,0,1-3-3V16A1,1,0,0,1,36,15Z"/><path class="cls-9" d="M38,19V16a1,1,0,0,1,1-1H36a1,1,0,0,0-1,1v3a3,3,0,0,0,3,3h1a2.962,2.962,0,0,0,1-.184A2.99,2.99,0,0,1,38,19Z"/><path class="cls-10" d="M46,21H42.438A3.941,3.941,0,0,0,43,19V16a2,2,0,0,0-2-2H36a2,2,0,0,0-2,2v3a3.961,3.961,0,0,0,.543,2H31V19a2,2,0,0,0-2-2V6a2,2,0,0,0-2-2H9A2,2,0,0,0,7,6V17a2,2,0,0,0-2,2v2H2a2,2,0,0,0-2,2v2a2,2,0,0,0,2,2H4V43a2,2,0,0,0,2,2H8a2,2,0,0,0,2-2V39h9a2,2,0,0,0,2-2V27H38V43a2,2,0,0,0,2,2h2a2,2,0,0,0,2-2V27h2a2,2,0,0,0,2-2V23A2,2,0,0,0,46,21ZM36,19V16h5v3a2,2,0,0,1-2,2H38A2,2,0,0,1,36,19ZM9,6H27V17H9ZM7,19H29v2H7ZM8,43H6V27H8Zm11-6H10V33h9Zm0-6H10V27h9ZM42,43H40V27h2ZM2,25V23H46v2Z"/><path class="cls-10" d="M36,11.707V12a1,1,0,0,0,2,0v-.293a2.686,2.686,0,0,0-.793-1.914.7.7,0,0,1-.207-.5V9a1,1,0,0,0-2,0v.293a2.686,2.686,0,0,0,.793,1.914A.7.7,0,0,1,36,11.707Z"/><path class="cls-10" d="M39,10.707V11a1,1,0,0,0,2,0v-.293a2.686,2.686,0,0,0-.793-1.914.7.7,0,0,1-.207-.5V8a1,1,0,0,0-2,0v.293a2.686,2.686,0,0,0,.793,1.914A.7.7,0,0,1,39,10.707Z"/></svg>