<?xml version="1.0" encoding="UTF-8" standalone="no"?> <svg id="Layer_1" data-name="Layer 1" xmlns="http://www.w3.org/2000/svg" viewBox="0 0 48 48"><defs><style>.cls-1{fill:#afb4c2;}.cls-2{fill:#8c94af;}.cls-3{fill:#1761b2;}.cls-4{fill:#0d3b8d;}.cls-5{fill:#47caf0;}.cls-6{fill:#20aee1;}.cls-7{fill:#08105e;}</style></defs><path class="cls-1" d="M2,35H46a1,1,0,0,1,1,1v1a4,4,0,0,1-4,4H5a4,4,0,0,1-4-4V36A1,1,0,0,1,2,35Z"/><path class="cls-2" d="M43,38H5a3.989,3.989,0,0,1-3.749-2.646A.989.989,0,0,0,1,36v1a4,4,0,0,0,4,4H43a4,4,0,0,0,4-4V36a.989.989,0,0,0-.251-.646A3.989,3.989,0,0,1,43,38Z"/><path class="cls-3" d="M4,35V11A4,4,0,0,1,8,7H40a4,4,0,0,1,4,4V35Z"/><rect class="cls-4" x="4" y="27" width="40" height="8"/><polygon class="cls-2" points="15 35 17 38 31 38 33 35 15 35"/><rect class="cls-5" x="8" y="11" width="32" height="20"/><rect class="cls-6" x="8" y="27" width="32" height="4"/><path class="cls-7" d="M46,34H45V11a5.006,5.006,0,0,0-5-5H8a5.006,5.006,0,0,0-5,5V34H2a2,2,0,0,0-2,2v1a5.006,5.006,0,0,0,5,5H43a5.006,5.006,0,0,0,5-5V36A2,2,0,0,0,46,34ZM5,11A3,3,0,0,1,8,8H40a3,3,0,0,1,3,3V34H5ZM31.132,36l-.667,1H17.535l-.667-1ZM46,37a3,3,0,0,1-3,3H5a3,3,0,0,1-3-3V36H14.465l1.7,2.555A1,1,0,0,0,17,39H31a1,1,0,0,0,.832-.445L33.535,36H46Z"/><path class="cls-7" d="M40,10H8a1,1,0,0,0-1,1V31a1,1,0,0,0,1,1H40a1,1,0,0,0,1-1V11A1,1,0,0,0,40,10ZM39,30H9V12H39Z"/></svg>